<?xml version="1.0" encoding="UTF-8" standalone="no"?>
<svg id="レイヤー_1" data-name="レイヤー 1" xmlns="http://www.w3.org/2000/svg" viewBox="0 0 60 60"><title>languageswitcher</title><rect width="60" height="60" rx="10.09" ry="10.09" fill="#ef7ead"/><path d="M3.95,42.79a1.44,1.44,0,0,1-1.44,1,2.56,2.56,0,0,1-.74-0.11A1.64,1.64,0,0,1,.47,42.2a1.88,1.88,0,0,1,.11-0.63L10.64,16.3a2.51,2.51,0,0,1,2.55-1.74,2.57,2.57,0,0,1,2.63,1.74L25.89,41.64a1.3,1.3,0,0,1,.15.63,1.61,1.61,0,0,1-1.33,1.48,2.09,2.09,0,0,1-.67.11,1.54,1.54,0,0,1-1.52-1L19.6,35.17H6.79ZM18.49,32.06L14.38,21.29a35.69,35.69,0,0,1-1.15-3.52,30.76,30.76,0,0,1-1.15,3.55L7.91,32.06H18.49Z" fill="#ffffff"/><path d="M34.63,43.75c-2.89,0-5-2.11-5-5.74,0-4.92,3.7-9.32,8.88-11.62,0-.52,0-1,0-1.59,0-1.48,0-3,.07-4.4-2.07,0-4.37.07-6.55,0.07A1.3,1.3,0,0,1,30.56,19a1.23,1.23,0,0,1,1.29-1.33h1.92c1.59,0,3.22,0,4.88,0,0-1.3.11-2.63,0.22-3.77a1.3,1.3,0,0,1,1.41-1.18h0.19a1.13,1.13,0,0,1,1.26,1.18v0.19c-0.11,1.07-.19,2.22-0.26,3.48a120.51,120.51,0,0,0,13.36-1.15h0.26a1.28,1.28,0,0,1,1.33,1.22v0.26a1.29,1.29,0,0,1-1.29,1.33c-4.11.55-8.81,0.89-13.88,1.07,0,1.37-.07,2.74-0.07,4.14v1a24.36,24.36,0,0,1,6.33-.78c0.15-.63.26-1.18,0.33-1.63a1.12,1.12,0,0,1,1.22-.92,0.93,0.93,0,0,1,.3,0,1.16,1.16,0,0,1,1.18,1.15v0.22c-0.07.44-.19,0.93-0.3,1.41,6,0.92,9.1,4.55,9.1,9.51,0,6-5.29,10.66-13.25,11H46A1.42,1.42,0,0,1,44.54,44V43.9a1.28,1.28,0,0,1,1.29-1.37c6.59-.33,10.4-3.77,10.4-8.25,0-3.7-2.29-6.36-6.62-6.92A28.73,28.73,0,0,1,43.4,39.13c0.18,0.44.37,0.92,0.63,1.48a1.68,1.68,0,0,1,.19.74,1.38,1.38,0,0,1-.81,1.26,2,2,0,0,1-.74.19,1.14,1.14,0,0,1-1-.63c-0.15-.3-0.3-0.67-0.44-1A10.14,10.14,0,0,1,34.63,43.75Zm4-14.65c-4.07,2.18-6.22,5.66-6.22,8.73,0,2,1.07,3,2.59,3a8.26,8.26,0,0,0,5.22-2.44A37.68,37.68,0,0,1,38.62,29.1ZM47,27a16.51,16.51,0,0,0-5.74.89,34.8,34.8,0,0,0,1.15,8.33A25.62,25.62,0,0,0,47,27Z" fill="#ffffff"/></svg>